#!OML:ASF H:\Dans Jumps\Project 1\Capture day 1\Session 1\subject.ASF
:FULLY-SPECIFIED
:DEGREES
613
root 0.338641 17.7445 6.7093 7.62559 -1.3639 -1.68957
lowerback -4.4257 0.593954 -0.0555084
upperback 1.90126 0.755968 0.962246
thorax 4.43208 0.358921 1.08709
lowerneck -10.2297 -0.368948 -2.17173
upperneck 20.999 -0.437758 1.57057
head 8.19552 -0.222736 0.844071
rclavicle 2.60905e-016 3.47873e-016
rhumerus -27.3059 -15.7181 -80.2277
rradius 27.2953
rwrist 31.239
rhand -19.8745 -26.2479
rfingers 7.12502
rthumb 6.46101 -56.1293
lclavicle 2.60905e-016 3.47873e-016
lhumerus -28.2292 1.74867 87.8284
lradius 21.4261
lwrist 8.03955
lhand -25.4676 -5.40402
lfingers 7.12502
lthumb 1.05999 24.5731
rfemur -12.3108 -3.13733 20.6342
rtibia 18.8536
rfoot -12.7772 3.22985
rtoes 18.0747
lfemur -10.1231 5.98015 -17.23
ltibia 16.0827
lfoot -8.86067 9.04858
ltoes 2.69817
614
root 0.337614 17.7446 6.70531 7.62154 -1.39584 -1.68385
lowerback -4.41441 0.590451 -0.0476767
upperback 1.89451 0.750805 0.9646
thorax 4.41883 0.356616 1.08448
lowerneck -10.1711 -0.376975 -2.17227
upperneck 20.6654 -0.440295 1.53642
head 8.0732 -0.226723 0.830953
rclavicle -9.38015e-015 -3.97569e-016
rhumerus -27.3393 -15.7143 -80.2576
rradius 27.2623
rwrist 31.2693
rhand -19.8473 -26.2141
rfingers 7.12502
rthumb 6.48725 -56.0947
lclavicle -9.38015e-015 -3.97569e-016
lhumerus -28.2556 1.58296 87.976
lradius 21.4649
lwrist 8.05695
lhand -25.4293 -5.3752
lfingers 7.12502
lthumb 1.09693 24.6017
rfemur -12.3307 -3.13557 20.6299
rtibia 18.8647
rfoot -12.7697 3.25952
rtoes 18.0935
lfemur -10.1187 5.98794 -17.234
ltibia 16.0656
lfoot -8.84604 9.063
ltoes 2.73094
615
root 0.33652 17.7447 6.70113 7.61782 -1.42906 -1.67881
lowerback -4.40036 0.587841 -0.0416267
upperback 1.88526 0.74695 0.967669
thorax 4.40135 0.354921 1.08366
lowerneck -10.1225 -0.383497 -2.17231
upperneck 20.3534 -0.441137 1.50311
head 7.96037 -0.229739 0.81841
rclavicle 1.68967e-015 -4.17448e-015
rhumerus -27.3806 -15.6994 -80.2871
rradius 27.2379
rwrist 31.2876
rhand -19.8186 -26.1897
rfingers 7.12502
rthumb 6.5149 -56.0695
lclavicle 1.68967e-015 -4.17448e-015
lhumerus -28.28 1.4217 88.1141
lradius 21.4953
lwrist 8.08387
lhand -25.3907 -5.36468
lfingers 7.12502
lthumb 1.13426 24.6121
rfemur -12.3514 -3.12845 20.6267
rtibia 18.8739
rfoot -12.759 3.28568
rtoes 18.1113
lfemur -10.1177 5.99169 -17.2365
ltibia 16.0541
lfoot -8.83507 9.08199
ltoes 2.77498
616
root 0.335412 17.7447 6.69687 7.61409 -1.46238 -1.67005
lowerback -4.38469 0.585752 -0.041016
upperback 1.87574 0.744165 0.970178
thorax 4.3826 0.353615 1.08537
lowerneck -10.0897 -0.389079 -2.16728
upperneck 20.0613 -0.440876 1.46645
head 7.85738 -0.232104 0.8042
rclavicle 6.52262e-015 7.55382e-015
rhumerus -27.4271 -15.6679 -80.3173
rradius 27.2226
rwrist 31.2907
rhand -19.7844 -26.1827
rfingers 7.12502
rthumb 6.54795 -56.0615
lclavicle 6.52262e-015 7.55382e-015
lhumerus -28.2981 1.26004 88.2464
lradius 21.5152
lwrist 8.13511
lhand -25.3598 -5.35608
lfingers 7.12502
lthumb 1.16404 24.6205
rfemur -12.3735 -3.12154 20.6197
rtibia 18.8847
rfoot -12.7484 3.31143
rtoes 18.1327
lfemur -10.1185 5.99574 -17.2428
ltibia 16.045
lfoot -8.82393 9.10029
ltoes 2.81528
617
root 0.334204 17.7447 6.69214 7.61549 -1.49298 -1.67187
lowerback -4.36727 0.584345 -0.0320146
upperback 1.86329 0.741679 0.975767
thorax 4.35987 0.352671 1.08552
lowerneck -10.0669 -0.39411 -2.15476
upperneck 19.7842 -0.440182 1.42451
head 7.76146 -0.234158 0.787189
rclavicle -1.50331e-015 -3.77691e-015
rhumerus -27.4783 -15.6223 -80.3475
rradius 27.2126
rwrist 31.28
rhand -19.7553 -26.1878
rfingers 7.12502
rthumb 6.57608 -56.0657
lclavicle -1.50331e-015 -3.77691e-015
lhumerus -28.3117 1.11118 88.3677
lradius 21.5289
lwrist 8.20326
lhand -25.324 -5.35209
lfingers 7.12502
lthumb 1.19864 24.6243
rfemur -12.404 -3.1073 20.6256
rtibia 18.8985
rfoot -12.7371 3.3269
rtoes 18.1518
lfemur -10.1281 5.99679 -17.237
ltibia 16.0371
lfoot -8.80964 9.11995
ltoes 2.85163
618
root 0.333044 17.7446 6.68733 7.61695 -1.52186 -1.66732
lowerback -4.34786 0.582101 -0.0306928
upperback 1.85016 0.738632 0.979846
thorax 4.33524 0.351262 1.08835
lowerneck -10.0546 -0.400125 -2.13132
upperneck 19.5215 -0.440396 1.37042
head 7.67246 -0.236942 0.764426
rclavicle -5.96354e-016 4.67144e-015
rhumerus -27.5301 -15.5631 -80.3791
rradius 27.2036
rwrist 31.2605
rhand -19.7386 -26.196
rfingers 7.12502
rthumb 6.59217 -56.0734
lclavicle -5.96354e-016 4.67144e-015
lhumerus -28.3233 0.975088 88.4794
lradius 21.5337
lwrist 8.27175
lhand -25.3017 -5.34307
lfingers 7.12502
lthumb 1.22022 24.6332
rfemur -12.4367 -3.09413 20.6242
rtibia 18.9162
rfoot -12.7284 3.34201
rtoes 18.18
lfemur -10.1384 5.99556 -17.2384
ltibia 16.0291
lfoot -8.79146 9.13923
ltoes 2.87645
619
root 0.331875 17.7445 6.68235 7.61835 -1.54884 -1.66168
lowerback -4.32634 0.579039 -0.0326854
upperback 1.83653 0.734697 0.984337
thorax 4.30887 0.349322 1.09336
lowerneck -10.0398 -0.407002 -2.10591
upperneck 19.2628 -0.441822 1.31335
head 7.58459 -0.240414 0.740367
rclavicle 4.42296e-015 4.96962e-016
rhumerus -27.5816 -15.4949 -80.4101
rradius 27.1919
rwrist 31.2407
rhand -19.732 -26.1978
rfingers 7.12502
rthumb 6.59854 -56.075
lclavicle 4.42296e-015 4.96962e-016
lhumerus -28.3338 0.862937 88.5776
lradius 21.5355
lwrist 8.31819
lhand -25.2939 -5.32869
lfingers 7.12502
lthumb 1.2277 24.6475
rfemur -12.4709 -3.07912 20.6215
rtibia 18.9362
rfoot -12.7208 3.3537
rtoes 18.2189
lfemur -10.1497 5.9927 -17.241
ltibia 16.0214
lfoot -8.77304 9.15843
ltoes 2.90508
620
root 0.330787 17.7445 6.67732 7.61846 -1.56871 -1.65523
lowerback -4.30456 0.573673 -0.0353623
upperback 1.82415 0.727715 0.988918
thorax 4.28371 0.345842 1.09862
lowerneck -10.028 -0.413252 -2.08636
upperneck 19.0152 -0.442704 1.26229
head 7.50112 -0.243474 0.719444
rclavicle -1.04362e-014 -1.98785e-015
rhumerus -27.626 -15.4267 -80.4413
rradius 27.1731
rwrist 31.2272
rhand -19.729 -26.2017
rfingers 7.12502
rthumb 6.60148 -56.0788
lclavicle -1.04362e-014 -1.98785e-015
lhumerus -28.3411 0.770088 88.6623
lradius 21.5333
lwrist 8.34171
lhand -25.2927 -5.3284
lfingers 7.12502
lthumb 1.22887 24.6478
rfemur -12.5042 -3.06913 20.6177
rtibia 18.96
rfoot -12.7169 3.36424
rtoes 18.2586
lfemur -10.1594 5.98853 -17.2444
ltibia 16.0107
lfoot -8.75382 9.1709
ltoes 2.93597
